<?xml version="1.0" encoding="utf-8"?>
<svg xmlns="http://www.w3.org/2000/svg" width="7.3in" height="4.04in" viewBox="0 0 525.63 290.66"><title>illustration-payroll</title><g style="isolation:isolate"><path d="M382.84,963.87c-139.18,0-252,6.85-252,15.29s112.82,15.28,252,15.28,252-6.84,252-15.28S522,963.87,382.84,963.87Z" transform="translate(-118.7 -719.12)" fill="#d2dbeb"/><path d="M382.84,974.54c-104.77,0-189.7-3.51-189.7,4.93s84.93,30.31,189.7,30.31,189.7-21.87,189.7-30.31S487.61,974.54,382.84,974.54Z" transform="translate(-118.7 -719.12)" fill="#d2dbeb"/><polygon points="235.23 0 235.23 14.78 473.38 14.78 473.38 0.01 235.23 0" fill="#00438c"/><rect x="353.47" y="137.63" width="2.25" height="12.72" fill="#353535"/><path d="M359.27,734.9V861.42H587.32V734.9Z" transform="translate(-118.7 -719.12)" fill="none" stroke="#e4eef9" stroke-miterlimit="10" stroke-width="2"/><polygon points="325.74 138.69 231.39 138.69 231.39 143.25 474.81 143.25 474.81 138.69 343.69 138.69 325.74 138.69" fill="#00438c"/><path d="M473.29,868.16A3.74,3.74,0,1,0,477,871.9,3.75,3.75,0,0,0,473.29,868.16Zm0,5.61a1.87,1.87,0,1,1,1.87-1.87A1.87,1.87,0,0,1,473.29,873.77Z" transform="translate(-118.7 -719.12)" fill="#b6daed"/><rect x="380.64" y="51.06" width="7.76" height="18.01" fill="#3ec6c9"/><rect x="393.96" y="43.4" width="7.76" height="25.68" fill="#3ec6c9"/><rect x="407.27" y="46.75" width="7.76" height="22.33" fill="#3ec6c9"/><rect x="420.59" y="37.39" width="7.76" height="31.68" fill="#3ec6c9"/><rect x="433.91" y="25.25" width="7.76" height="43.82" fill="#3ec6c9"/><rect x="380.64" y="73.04" width="61.03" height="2.11" fill="#00438c"/><rect x="326.54" y="29.86" width="14.3" height="2.87" fill="#00438c"/><rect x="342.98" y="29.86" width="4.83" height="2.87" fill="#00438c"/><rect x="326.54" y="52.86" width="13.04" height="2.87" fill="#00438c"/><rect x="336.22" y="64.36" width="11.59" height="2.87" fill="#00438c"/><rect x="326.54" y="64.36" width="7.88" height="2.87" fill="#00438c"/><rect x="326.54" y="41.36" width="7.64" height="2.87" fill="#00438c"/><rect x="333.22" y="41.36" width="5.99" height="2.87" fill="#00438c"/><path d="M437.66,746.8a3.61,3.61,0,1,0,3.61,3.61A3.62,3.62,0,0,0,437.66,746.8Z" transform="translate(-118.7 -719.12)" fill="#00438c"/><path d="M437.66,758.3a3.61,3.61,0,1,0,3.61,3.61A3.62,3.62,0,0,0,437.66,758.3Z" transform="translate(-118.7 -719.12)" fill="#e4eef9"/><path d="M437.66,769.8a3.61,3.61,0,1,0,3.61,3.61A3.61,3.61,0,0,0,437.66,769.8Z" transform="translate(-118.7 -719.12)" fill="#3ec6c9"/><path d="M437.66,781.3a3.61,3.61,0,1,0,3.61,3.61A3.61,3.61,0,0,0,437.66,781.3Z" transform="translate(-118.7 -719.12)" fill="#00aae7"/><rect x="259.16" y="90.67" width="19.9" height="20.63" fill="#d2dbeb"/><rect x="281.82" y="90.67" width="27.5" height="2.43" fill="#e4eef9"/><rect x="321.9" y="90.67" width="28.95" height="2.43" fill="#e4eef9"/><rect x="281.82" y="96.5" width="35.64" height="2.43" fill="#e4eef9"/><rect x="302.96" y="102.32" width="6.41" height="2.43" fill="#e4eef9"/><rect x="311.96" y="102.32" width="9.78" height="2.43" fill="#e4eef9"/><rect x="324.32" y="96.5" width="26.53" height="2.43" fill="#e4eef9"/><rect x="281.82" y="102.32" width="16.65" height="2.43" fill="#e4eef9"/><rect x="281.82" y="108.87" width="56.97" height="2.43" fill="#e4eef9"/><rect x="290.86" y="114.7" width="60" height="2.43" fill="#e4eef9"/><rect x="259.16" y="114.7" width="28.34" height="2.43" fill="#e4eef9"/><rect x="372.82" y="90.67" width="14.51" height="2.31" fill="#fff"/><rect x="372.82" y="96.38" width="22.39" height="2.31" fill="#fff"/><rect x="394.24" y="90.67" width="21.24" height="2.31" fill="#fff"/><rect x="419.72" y="90.67" width="11.17" height="2.31" fill="#fff"/><rect x="417" y="96.38" width="24.88" height="2.31" fill="#fff"/><rect x="372.82" y="102.07" width="14.51" height="2.31" fill="#fff"/><rect x="372.82" y="107.78" width="45.58" height="2.31" fill="#fff"/><rect x="394.24" y="102.07" width="27.63" height="2.31" fill="#fff"/><rect x="427.39" y="102.07" width="14.49" height="2.31" fill="#fff"/><rect x="423.92" y="107.78" width="25.56" height="2.31" fill="#fff"/><rect x="400.19" y="96.38" width="10.58" height="2.31" fill="#fff"/><path d="M637.62,884.14c-.59.47-1.37.6-1,1s2.29-.56,2.51-.86a3,3,0,0,0,.19-1.88A8.61,8.61,0,0,1,637.62,884.14Z" transform="translate(-118.7 -719.12)" fill="#fcd2c5"/><path d="M639.28,882.44c-.65,2.33-1.41,3.11-1.35,4.15,0,.42,4,1.58,4.57-.32,0-.11.32-1.39.7-2.84A20.41,20.41,0,0,0,639.28,882.44Z" transform="translate(-118.7 -719.12)" fill="#fcd2c5"/><path d="M619.25,834c-1.49.64-8.06,7.07-7.51,7.66,3,3.24,15.08,10.84,20.17,15.59,6.24,5.81,8.07-.62,6.75-3C635.18,848,622.67,832.52,619.25,834Z" transform="translate(-118.7 -719.12)" fill="#fcd2c5"/><path d="M637.52,853.07c-2.92-.84-4.21,1-4.48,2.51a2.84,2.84,0,0,0,0,.91c.69,4.73,6.3,21.8,6.24,26.84a12.8,12.8,0,0,1,4,.1C643.68,880.73,640.71,854,637.52,853.07Z" transform="translate(-118.7 -719.12)" fill="#fcd2c5"/><path d="M618.18,830.89c-1.5.67-8.75,10.85-8.5,11.1,1.55,1.63,22.44,15.6,22.86,15.91.49,2,1.24,4.54,2,7.28,1.74,6,3.89,13.44,3.9,16.29l5.85-.48c-.15-7.12-2.25-23.71-5.06-28.4C636.42,847.68,622.69,828.88,618.18,830.89Z" transform="translate(-118.7 -719.12)" fill="#3ec6c9"/><path d="M599.48,914.41c-.36,2.67,1.13,62.2,1.13,62.2a4.34,4.34,0,0,0,3.76-.38s7-58,7.13-59.16C610.48,918,600.94,915.69,599.48,914.41Z" transform="translate(-118.7 -719.12)" fill="#fcd2c5"/><path d="M605.18,976.2c-.51-.68-1.11-1.72-1.11-1.72L600.85,976s-.28.33-.18,1.32a2.54,2.54,0,0,0,0,2.07c.29.57,2.3,1.54,3.18,1.89a10.5,10.5,0,0,0,3.66.74c1.53,0,3.46-.64,3.51-1.53C611.13,978.73,606.15,977.51,605.18,976.2Z" transform="translate(-118.7 -719.12)" fill="#3ec6c9"/><path d="M617.65,971.82c-.6-.81-1-.86-1-.86l-3.42,1a20.32,20.32,0,0,1,.34,2c.16,1.62-2.71,5.87-1.44,7.1.64.62,2.53-.17,3.64-1.22a7.36,7.36,0,0,0,2.21-3c.28-1.15,1.25-2.92,1.09-3.54A2.55,2.55,0,0,0,617.65,971.82Z" transform="translate(-118.7 -719.12)" fill="#3ec6c9"/><path d="M613,971.93a7.58,7.58,0,0,1,.54,2.08,5.28,5.28,0,0,0,2.51-.09c.73-.23,1.59-2.1,1.59-2.1-.6-.81-1-1.32-1-1.32Z" transform="translate(-118.7 -719.12)" fill="#fcd2c5"/><path d="M602.65,877.77c-7.48.86-17.27.42-19.81-.55-.19,2.11,2.43,29.12,5.53,55.23,1.48,12.5,24.94,40.36,24.94,40.36a4.24,4.24,0,0,0,4.12-1.28s-15.88-31.71-15.49-39.71C602.8,913.75,604.81,890.88,602.65,877.77Z" transform="translate(-118.7 -719.12)" fill="#00438c"/><path d="M600.6,975.92a9.45,9.45,0,0,0,.07,1.41s1.9.81,2.59.49a5.28,5.28,0,0,0,1.92-1.62,7.71,7.71,0,0,1-1-1.9Z" transform="translate(-118.7 -719.12)" fill="#fcd2c5"/><path d="M599.35,873.67s-2.36,38.3-.9,56.94c1.7,21.58,1.43,44.34,1.43,44.34,1.42,1.77,5,.34,5,.17,0,0,15.74-97.81,15.44-101.83C617.77,874.22,606.82,874.64,599.35,873.67Z" transform="translate(-118.7 -719.12)" fill="#00438c"/><path d="M582.77,869.23s-1,7.91-1.33,14.79a45.4,45.4,0,0,0,15.29,3.51l2.59-6.76s2.92,7.06,4.14,7.14c6.82.44,13.79,0,18.57-2.65l-2.16-10.48Z" transform="translate(-118.7 -719.12)" fill="#d2dbeb"/><path d="M605.58,816.53c.14,2.1-.9,7.86-1.7,8.9,1.44,4,7.7,4.42,8.31,2.19-.82-2.5.57-7,.61-7.37C611.24,820.36,606.07,817,605.58,816.53Z" transform="translate(-118.7 -719.12)" fill="#fcd2c5"/><path d="M618.51,830.37c-1-.66-6.32-2.75-6.32-2.75s-1.43,1.55-3,1.32c-2.21-.33-5.36-3.51-5.36-3.51s-4.85.94-6.49,1.2c-4.89.79-7.45,5-8.88,8.93-3.22,8.91-6.12,29.44-6.86,35a2.49,2.49,0,0,0,1,2.36c8.91,6.4,32.85,6.15,37.19,4.48,3.34-1.29-.5-26.76,2.15-37.48A8.6,8.6,0,0,0,618.51,830.37Z" transform="translate(-118.7 -719.12)" fill="#3ec6c9"/><path d="M533.71,820.37a12.93,12.93,0,0,0-1.9-1.08,2.1,2.1,0,0,0-1.24.3.66.66,0,0,0-.13.71c-.47.27.44,1.31.31,1.35-.54.17-.47,1,1.24,2,.1.06,3.81,3.33,5.08,4.28a19.47,19.47,0,0,0,1.93-3.56,20,20,0,0,0-2.1-1.85C536,821.78,533.86,820.46,533.71,820.37Z" transform="translate(-118.7 -719.12)" fill="#fcd2c5"/><path d="M588.49,829.11c-4.42.28-17.94,4.85-24.83,5.8-8.45,1.16-4.62,6.64-1.95,7.11,7,1.25,26.95,1.33,28-2.25C590.13,838.22,589.29,829.06,588.49,829.11Z" transform="translate(-118.7 -719.12)" fill="#fcd2c5"/><path d="M563.55,836.23c-4.11-2.45-20.88-8.88-24.75-12.12a15.67,15.67,0,0,1-2.22,3.37c6.47,5.19,24,16.3,26.77,14.4,2.49-1.73,1.86-3.92.88-5A2.82,2.82,0,0,0,563.55,836.23Z" transform="translate(-118.7 -719.12)" fill="#fcd2c5"/><path d="M595.28,827.23c-14.26,1.26-32,7.61-32.53,7.74-1.82-.85-19.8-8.49-22-10.28l-3.32,4.84c5.61,4.37,19.8,13.23,25.21,14,5.6.9,23.55.54,27.56-3.56C591.33,838.79,596.92,827.08,595.28,827.23Z" transform="translate(-118.7 -719.12)" fill="#3ec6c9"/><path d="M617.7,824.38a15.78,15.78,0,0,0-.2-8.79c-1.31-2.11-5.23,1.91-5.28,2,.68,2.08.28,4.79-.26,7.39s-1.18,4.9.2,10.94c2,8.68-2.8,17.78-1,18.83,1.64.95,7.37-3.54,8.33-13.06A15.47,15.47,0,0,0,618.4,834,14,14,0,0,1,617.7,824.38Z" transform="translate(-118.7 -719.12)" fill="#00438c"/><path d="M612.32,809c-3.07,0-5.6,3-5.63,6,0,0,0,3.16,0,3.16,0,2.29,3.48,5.92,5.48,5.52,4.73-1,5.8-9.6,5.65-10.58C617.38,810.35,615.17,809,612.32,809Z" transform="translate(-118.7 -719.12)" fill="#fcd2c5"/><path d="M616.8,806.88a4.57,4.57,0,0,0-2.91-.63s0-1.35-2.65-2.61c-2.16-1-6.24-.27-9.3,2.94a13.9,13.9,0,0,0-3.56,13.47,12.15,12.15,0,0,1-1.9,10.91c-2.16,2.79-2.44,6.7-2.32,8.57.7,10.89,9.23,16.46,11.86,15.52,2.89-1-3.78-11.77,0-21.46,2.64-6.74.48-8.92-.13-11.84a14.16,14.16,0,0,1,2.62-10.52c1.81-2,5.34-2.18,5.34-2.18s5,1.48,2.91,9.44C619.48,816.28,620,808.82,616.8,806.88Z" transform="translate(-118.7 -719.12)" fill="#00438c"/><path d="M605.15,815.45a2.75,2.75,0,0,0,1.39,2.27c.4-.79,1.22-2.38,1.59-3.39a2.51,2.51,0,0,0-1.23-.53C606.11,813.7,605.24,814.67,605.15,815.45Z" transform="translate(-118.7 -719.12)" fill="#fcd2c5"/><rect x="156.36" y="164.33" width="24.99" height="11.42" fill="#00438c"/><rect x="124.76" y="114.1" width="88.65" height="52" rx="4.11" fill="#00438c"/><rect x="127.49" y="116.5" width="83.19" height="42.25" fill="#d2dbeb"/><path d="M307.1,893.24H266.51a1.59,1.59,0,0,0,0,3.18H307.1a1.59,1.59,0,0,0,0-3.18Z" transform="translate(-118.7 -719.12)" fill="#00438c" fill-rule="evenodd"/><rect x="197.66" y="140.86" width="6.35" height="1.01" fill="#fff"/><rect x="194.22" y="138.36" width="9.8" height="1.01" fill="#fff"/><rect x="185.34" y="140.86" width="9.3" height="1.01" fill="#fff"/><rect x="178.6" y="140.86" width="4.89" height="1.01" fill="#fff"/><rect x="173.79" y="138.36" width="10.89" height="1.01" fill="#fff"/><rect x="197.66" y="135.87" width="6.35" height="1.01" fill="#fff"/><rect x="184.06" y="133.38" width="19.95" height="1.01" fill="#fff"/><rect x="182.55" y="135.87" width="12.09" height="1.01" fill="#fff"/><rect x="173.79" y="135.87" width="6.34" height="1.01" fill="#fff"/><rect x="170.46" y="133.38" width="11.19" height="1.01" fill="#fff"/><rect x="187.4" y="138.36" width="4.63" height="1.01" fill="#fff"/><rect x="115.76" y="185.84" width="2.32" height="77.09" fill="#d2dbeb"/><rect x="145.72" y="185.84" width="2.32" height="77.09" fill="#d2dbeb"/><rect x="227.89" y="185.84" width="2.32" height="77.09" fill="#d2dbeb"/><rect x="257.84" y="185.84" width="2.32" height="77.09" fill="#d2dbeb"/><rect x="109.59" y="177.31" width="44.91" height="8.62" fill="#d2dbeb"/><rect x="154.51" y="177.31" width="109.64" height="8.62" fill="#7094aa"/><rect x="235.96" y="135.34" width="18.45" height="41.4" fill="#d2dbeb"/><rect x="237.63" y="139.1" width="15.1" height="6.31" fill="#3ec6c9"/><rect x="237.63" y="146.96" width="15.1" height="3.72" fill="#3ec6c9"/><rect x="207.67" y="135.34" width="28.29" height="41.4" fill="#fff"/><path d="M363.87,881.66a3.69,3.69,0,1,0,3.69,3.69A3.69,3.69,0,0,0,363.87,881.66Z" transform="translate(-118.7 -719.12)" fill="#d2dbeb"/><path d="M292.34,892.25c-.15.35,1.2,1.33,1.58,1.37.93-.19.82-.74,1.71-.79a8,8,0,0,1-2.33-.62C292.91,892,292.53,891.69,292.34,892.25Z" transform="translate(-118.7 -719.12)" fill="#fcd2c5"/><path d="M293.54,893.15c-1.11.22-3.51,1-3.68,1a14.62,14.62,0,0,0-2.07.73,2.19,2.19,0,0,0-.58,1.13.64.64,0,0,0,.45.56c-.11.54,1.27.54,1.22.66-.22.52.41,1,2.28.35.12,0,5-.69,6.57-1a19.33,19.33,0,0,0-1.42-3.79A19.52,19.52,0,0,0,293.54,893.15Z" transform="translate(-118.7 -719.12)" fill="#fcd2c5"/><path d="M322.31,882a3,3,0,0,0-.9.13C316.86,883.57,301,892,296,892.8a15.82,15.82,0,0,1,1.09,3.88c8.16-1.47,28.08-7.44,28.44-10.74C325.87,882.92,323.81,882,322.31,882Z" transform="translate(-118.7 -719.12)" fill="#fcd2c5"/><path d="M332.41,858.59c-2.69,3.51-8.12,16.71-11.93,22.53-4.67,7.14,2,7.85,4.09,6.15,5.57-4.49,18.7-19.46,16.67-22.58C340.36,863.33,332.89,858,332.41,858.59Z" transform="translate(-118.7 -719.12)" fill="#fcd2c5"/><path d="M331.6,856.06c-1.77,4.16-3.45,8-5.62,12.48a128.71,128.71,0,0,1-6.33,12,13.69,13.69,0,0,0-.84,1.44c-1.9.81-4.41,2-7.07,3.23-5.78,2.72-13,6.1-15.88,6.56l1.43,5.86c7.19-1.3,23.68-6.08,28-9.67,4.53-3.68,17.63-17.84,16.34-22.74C339.46,857.12,331.74,855.73,331.6,856.06Z" transform="translate(-118.7 -719.12)" fill="#3ec6c9"/><path d="M333.67,906.38c-6.47.32-40.4,12.46-54.19,20.74-5.86,3.52-3.43,9.8,3,9.41,18.65-1.13,43.35-.44,54.32-8.3C354.28,915.74,337.12,906.21,333.67,906.38Z" transform="translate(-118.7 -719.12)" fill="#00aae7"/><path d="M297.52,972.15a8.11,8.11,0,0,1,.41,2.53,5.21,5.21,0,0,0,3.8,1.25,12.79,12.79,0,0,0,.09-4C301.58,972,299.21,970.6,297.52,972.15Z" transform="translate(-118.7 -719.12)" fill="#fcd2c5"/><path d="M277,936.8c11.21,20.21,20.42,37.08,20.42,37.08a4.4,4.4,0,0,1,4.7-1.68S295.6,953.2,289,934C284.72,921.26,272.41,928.55,277,936.8Z" transform="translate(-118.7 -719.12)" fill="#00aae7"/><path d="M297.86,973.69a3.53,3.53,0,0,1-.72.82c-1.18,1.14-6.49,3.5-6.68,5.26-.09.89,1.7,1.88,3.21,2.1a7.36,7.36,0,0,0,3.73-.12,19,19,0,0,0,3.66-3.33c1.05-1.19.67-3.37.67-3.37C300.85,973,297.86,973.69,297.86,973.69Z" transform="translate(-118.7 -719.12)" fill="#00438c"/><path d="M297.86,975.85c-1.53,1.07-6.46,2.8-6.61,4.28-.08.75,1.43,1.59,2.7,1.77a6.13,6.13,0,0,0,3.14-.1,14,14,0,0,0,3.08-2.8C301.9,976.6,299.35,974.82,297.86,975.85Z" transform="translate(-118.7 -719.12)" fill="#00438c" style="mix-blend-mode:multiply"/><path d="M326.78,972.57c.41,2.27,1.08,4.49,1.08,4.49a12.18,12.18,0,0,0,4.61-2.38s-1-1.54-1.72-3C329.06,970.14,327,972.59,326.78,972.57Z" transform="translate(-118.7 -719.12)" fill="#fcd2c5"/><path d="M307.06,939.8C318.27,960,326.59,974,326.59,974a4.26,4.26,0,0,1,4.59-1.75s-5.5-16-12.06-35.25C314.79,924.26,302.48,931.55,307.06,939.8Z" transform="translate(-118.7 -719.12)" fill="#00aae7"/><path d="M332.26,974.51l0,0a3.08,3.08,0,0,0-3.2-.73l0,0a2.12,2.12,0,0,0-1.28,2.14,5.61,5.61,0,0,0,.63,2.51,17.29,17.29,0,0,0,3.66,3.33,7.37,7.37,0,0,0,3.73.12c1.52-.22,3.3-1.21,3.21-2.1C338.76,978,333.44,975.65,332.26,974.51Z" transform="translate(-118.7 -719.12)" fill="#00438c"/><path d="M331.54,975.85c-1.49-1-4,.75-2.31,3.15a14.28,14.28,0,0,0,3.08,2.8,6.13,6.13,0,0,0,3.14.1c1.28-.18,2.78-1,2.7-1.77C338,978.65,333.07,976.92,331.54,975.85Z" transform="translate(-118.7 -719.12)" fill="#00438c" style="mix-blend-mode:multiply"/><path d="M344.07,905.78a214.2,214.2,0,0,1-22.45,2.16,45.4,45.4,0,0,1-13.25-1.55c0,7-1.4,8.06-4.53,9.94,2.21,7.68,6.64,9.82,10.47,11.07,10.1,3.3,35.35-4.26,36.07-4.31A167.79,167.79,0,0,0,349.12,905C347.48,905.35,345.79,905.56,344.07,905.78Z" transform="translate(-118.7 -719.12)" fill="#d2dbeb"/><path d="M328.6,844.5c-.52.38-5.93,3.41-7.48,3.18,0,.43,1.07,5,.08,7.4.43,2.27,6.72,2.27,8.44-1.58C328.92,852.41,328.3,846.59,328.6,844.5Z" transform="translate(-118.7 -719.12)" fill="#fcd2c5"/><path d="M322.89,837c-2.85-.19-5.6.48-6.22,3.17-.23,1,.21,9.66,4.86,11,2,.55,5.72-2.82,5.87-5.1,0,0,.2-3.12.2-3.15C327.8,839.85,326,837.19,322.89,837Z" transform="translate(-118.7 -719.12)" fill="#fcd2c5"/><path d="M336,855.18c-1.61-.38-6.38-1.68-6.38-1.68s-.93,1.31-3.84,1.93a8.05,8.05,0,0,1-4.6-.35s-5.51,1.69-6.52,2.28c-3.88,2.27-3.9,3.9-4.15,9.24-.12,2.49-.17,40.7-6.21,49.49.2.35,2.38,5.57,7.36,6.89l1.23-10.82L314,923.47c11.68,2.51,20.63-2.11,30-3.55l.9-14.18,2.7,13.67c.91-.11,1.73-.2,2.45-.25C350,897.49,344,864.93,343.7,864,342.58,859.77,340.85,856.32,336,855.18Z" transform="translate(-118.7 -719.12)" fill="#3ec6c9"/><path d="M328.86,833.55c-4.46-3.5-12-.11-13.94,4.46-1.47,3.4-2.84,1-2.7.13-.44,2.27.52,4.23,4.89,3.9.92-.07-2,.84-2,.84s4.67,9.69,11.89,7.32a11.16,11.16,0,0,0,4-2.8s-2.34.39-1.11-1.52C332.27,842.18,332.79,836.63,328.86,833.55Z" transform="translate(-118.7 -719.12)" fill="#00438c"/><path d="M273.77,891.17c-.23.31.89,1.56,1.25,1.67,1,0,1-.54,1.84-.4a8.41,8.41,0,0,1-2.15-1.1C274.37,891.06,274.07,890.67,273.77,891.17Z" transform="translate(-118.7 -719.12)" fill="#fcd2c5"/><path d="M274.75,892.31c-1.13,0-3.64.2-3.82.22a12.73,12.73,0,0,0-2.17.27,2.19,2.19,0,0,0-.81,1,.65.65,0,0,0,.32.64c-.21.51,1.14.8,1.06.91-.33.46.19,1,2.16.82.11,0,5,.39,6.63.38a19.88,19.88,0,0,0-.58-4A19.46,19.46,0,0,0,274.75,892.31Z" transform="translate(-118.7 -719.12)" fill="#fcd2c5"/><path d="M303.21,886.76a2.83,2.83,0,0,0-.89.16c-4.48,1.68-20.68,4.73-25.62,5.74a16.28,16.28,0,0,1,1.25,3.83c8.09-1.82,28.45-2.57,28.67-5.88C306.81,887.58,304.71,886.71,303.21,886.76Z" transform="translate(-118.7 -719.12)" fill="#fcd2c5"/><path d="M312.33,863c-2.54,3.63-7.41,17-11,23-4.37,7.33,2.3,7.76,4.34,6,5.37-4.72,17.86-20.23,15.7-23.26C320.47,867.4,312.78,862.34,312.33,863Z" transform="translate(-118.7 -719.12)" fill="#fcd2c5"/><path d="M311.41,860.5c-1.59,4.23-3.11,8.13-5.09,12.7s-6.38,13.3-6.6,13.78c-1.86.89-19.43,4.06-22.3,4.64l.75,5.85c7.09-.62,24.11-1,28.24-4.79,4.37-3.86,18.46-19.55,16.69-24.3S311.54,860.16,311.41,860.5Z" transform="translate(-118.7 -719.12)" fill="#3ec6c9"/><polygon points="234.97 220.22 249.64 262.93 251.29 262.93 236.62 220.22 234.97 220.22" fill="#d2dbeb"/><polygon points="210.17 220.22 224.84 262.93 226.48 262.93 211.81 220.22 210.17 220.22" fill="#d2dbeb"/><path d="M356.93,876.19c-10.29,0-20.19,8.34-22.12,18.63l-6.44,26.74c-1.13,6.05-7.76,10.43-13.91,10.43H301.07a3.66,3.66,0,0,0,0,7.31l55.24.06a5.35,5.35,0,0,0,5.26-4.34l10.51-40.2C374,884.53,367.22,876.19,356.93,876.19Z" transform="translate(-118.7 -719.12)" fill="#d2dbeb"/><path d="M356.93,876.19c-10.29,0-20.19,8.34-22.12,18.63l-6.44,26.77c-1.13,6-7.76,10.45-13.91,10.45H301.07a3.64,3.64,0,1,0,0,7.28l1.74,0a3.68,3.68,0,0,1,3.36-2.25h13.39c6.15,0,12.78-4.36,13.91-10.4l6.44-26.74c1.93-10.29,11.83-18.62,22.12-18.62a16.17,16.17,0,0,1,8.27,2.15A15,15,0,0,0,356.93,876.19Z" transform="translate(-118.7 -719.12)" fill="#fff"/><polygon points="177.94 262.93 179.58 262.93 194.25 220.22 192.61 220.22 177.94 262.93" fill="#7094aa"/><polygon points="202.74 262.93 204.38 262.93 219.05 220.22 217.41 220.22 202.74 262.93" fill="#7094aa"/><path d="M128,900.44c-.4,1.92.19,4.2-.14,6.18-.42,2.47-2,3.17-3.06,4.73-1.25,1.85-1.83,5.31-1.37,8.25a44.73,44.73,0,0,0,1.37,5,11.77,11.77,0,0,1,.38,5.47c-.6,2.62-3.79,4.66-3.79,15.78,0,10.16,7.25,14.11,9.31,16.6V896.64l-.93.9A5.39,5.39,0,0,0,128,900.44Z" transform="translate(-118.7 -719.12)" fill="#3ec6c9"/><path d="M136.46,924.64a40.87,40.87,0,0,0,1.37-5c.46-2.94-.11-6.4-1.37-8.25-1.06-1.56-2.63-2.26-3.05-4.73-.34-2,.26-4.26-.15-6.18a5.38,5.38,0,0,0-1.76-2.9l-.93-.9v65.85c2.05-2.49,9.3-6.44,9.3-16.6,0-11.12-3.19-13.16-3.78-15.78A11.77,11.77,0,0,1,136.46,924.64Z" transform="translate(-118.7 -719.12)" fill="#3ec6c9"/><path d="M140.12,937.13c-.55.73-.3,1.82-.8,2.57-.62,1-2,.92-3,1.34a3.38,3.38,0,0,0-2,3.19,12.63,12.63,0,0,0,.58,2.41,2.77,2.77,0,0,1-.29,2.39c-.78,1-3.64,1.15-4.87,5.84-1.11,4.28,4.46,7.51,5.89,9l7.23-27.76-.87.18A2.9,2.9,0,0,0,140.12,937.13Z" transform="translate(-118.7 -719.12)" fill="#d2dbeb"/><path d="M143.93,940.91c-.06-.91.68-1.74.55-2.64a2.79,2.79,0,0,0-1.14-1.6l-.67-.59-7.23,27.77c2-.61,8.41-.71,9.53-5,1.22-4.69-1.2-6.24-1.4-7.47a2.76,2.76,0,0,1,.91-2.23,12.19,12.19,0,0,0,1.69-1.83,3.39,3.39,0,0,0-.23-3.77C145.23,942.67,144,942,143.93,940.91Z" transform="translate(-118.7 -719.12)" fill="#d2dbeb"/><path d="M118.7,960.82s4.51,4.85,4.51,8.1a14.39,14.39,0,0,1-.77,3.7,7.35,7.35,0,0,0,7,9.57h11.95a7.36,7.36,0,0,0,7-9.57,14.06,14.06,0,0,1-.78-3.7c0-3.25,4.52-8.1,4.52-8.1Z" transform="translate(-118.7 -719.12)" fill="#00aae7"/><polygon points="361.89 177.77 364.17 262.92 368.12 262.92 365.84 177.67 361.89 177.77" fill="#00438c"/><polygon points="299.6 177.91 307.95 262.92 311.92 262.92 303.53 177.53 299.6 177.91" fill="#00438c"/><polygon points="287.13 133.16 295.28 237.6 370.67 237.6 362.74 133.16 287.13 133.16" fill="#00438c"/><polygon points="324.96 262.92 328.97 262.92 343.62 178.06 339.73 177.39 324.96 262.92" fill="#00aae7"/><polygon points="276.02 262.92 280.03 262.92 294.68 178.06 290.78 177.39 276.02 262.92" fill="#00aae7"/><path d="M409.1,860.79c-2.6.49-6.44,4-8.21,6.89-6.12,9.86-7.49,29.66-5.12,46.06,2.6,18-.19,31-2.74,39.13h70c2.37-6.69,5.69-18,3.22-35.52-3.5-24.77.84-44.31,7.91-56.56Z" transform="translate(-118.7 -719.12)" fill="#e4eef9"/><polygon points="285.35 141.67 357.32 141.67 358.25 133.16 286.27 133.16 285.35 141.67" fill="#d2dbeb"/><rect x="285.13" y="174.47" width="4" height="7.14" fill="#00438c"/><polygon points="282.14 175.93 292.12 175.93 287.13 167.3 282.14 175.93" fill="#00438c"/><rect x="300.41" y="168.2" width="4" height="13.42" fill="#00438c"/><polygon points="297.42 169.66 307.39 169.66 302.41 161.02 297.42 169.66" fill="#00438c"/><rect x="314.82" y="162.55" width="4" height="19.06" fill="#00438c"/><polygon points="311.84 164.01 321.81 164.01 316.82 155.38 311.84 164.01" fill="#00438c"/><rect x="332.29" y="156.22" width="4" height="25.4" fill="#00438c"/><polygon points="329.3 157.68 339.27 157.68 334.29 149.04 329.3 157.68" fill="#00438c"/><rect x="284.37" y="186.09" width="9.71" height="2.42" fill="#d2dbeb"/><rect x="284.37" y="190.33" width="14.66" height="2.42" fill="#d2dbeb"/><rect x="297.82" y="186.09" width="13.93" height="2.42" fill="#d2dbeb"/><rect x="313.82" y="186.09" width="7.61" height="2.42" fill="#d2dbeb"/><rect x="323.83" y="186.09" width="9.27" height="2.42" fill="#d2dbeb"/><rect x="312.11" y="190.33" width="16.22" height="2.42" fill="#d2dbeb"/><rect x="284.37" y="194.56" width="9.71" height="2.42" fill="#d2dbeb"/><rect x="284.37" y="198.8" width="29.21" height="2.42" fill="#d2dbeb"/><rect x="297.82" y="194.56" width="17.94" height="2.42" fill="#d2dbeb"/><rect x="318.63" y="194.56" width="9.7" height="2.42" fill="#d2dbeb"/><rect x="331.64" y="194.56" width="11.87" height="2.42" fill="#d2dbeb"/><rect x="316.45" y="198.8" width="16.65" height="2.42" fill="#d2dbeb"/><rect x="301.55" y="190.33" width="7.24" height="2.42" fill="#d2dbeb"/><rect x="293.43" y="207.28" width="8.52" height="2.42" fill="#e4eef9"/><rect x="306.49" y="207.28" width="25.81" height="2.42" fill="#d2dbeb"/><rect x="282.77" y="211.51" width="16.51" height="2.42" fill="#d2dbeb"/><rect x="284.37" y="215.75" width="18.38" height="2.42" fill="#d2dbeb"/><rect x="284.37" y="219.98" width="12.74" height="2.43" fill="#d2dbeb"/><rect x="306.49" y="215.75" width="13.81" height="2.42" fill="#d2dbeb"/><rect x="299.98" y="219.98" width="23.78" height="2.43" fill="#d2dbeb"/><rect x="326.1" y="219.98" width="6.48" height="2.43" fill="#d2dbeb"/><rect x="294.35" y="224.22" width="11.88" height="2.42" fill="#d2dbeb"/><rect x="308.14" y="224.22" width="21.61" height="2.42" fill="#d2dbeb"/><rect x="332.27" y="224.22" width="6.88" height="2.42" fill="#d2dbeb"/><path d="M427.49,829.2c-.37.12-.21,1.78,0,2.09.75.57,1.09.13,1.72.77a8,8,0,0,1-1.08-2.16C428,829.47,428,829,427.49,829.2Z" transform="translate(-118.7 -719.12)" fill="#fcd2c5"/><path d="M424.4,828.61a14.4,14.4,0,0,0-1.9-1.07,2.17,2.17,0,0,0-1.24.31.64.64,0,0,0-.13.71c-.47.28.45,1.31.32,1.35-.54.17-.46,1,1.25,1.94.1.06,3.83,3.31,5.11,4.25a20.4,20.4,0,0,0,1.91-3.57,19,19,0,0,0-2.12-1.83C426.71,830,424.56,828.7,424.4,828.61Z" transform="translate(-118.7 -719.12)" fill="#fcd2c5"/><path d="M479.16,836c-2.3.16-6.84,1.42-11.65,2.75A126.13,126.13,0,0,1,454.3,842c-.59.09-1.13.19-1.65.32-1.86-.88-4.4-2-7.09-3.16-5.86-2.55-13.16-5.72-15.41-7.59l-3.46,4.94c5.72,4.54,20.21,13.75,25.75,14.61,5.74,1,27.65,1.73,29-3.15.46-1.63-.23-10.23-1.33-11.5A1.15,1.15,0,0,0,479.16,836Z" transform="translate(-118.7 -719.12)" fill="#00aae7"/><path d="M502.91,975.68l-3.12-1.74s-.67,1-1.21,1.65c-1.05,1.25-6.1,2.15-6.1,3.92,0,.89,1.88,1.69,3.41,1.76a10.72,10.72,0,0,0,3.7-.51c.9-.3,3-1.14,3.29-1.69A2.56,2.56,0,0,0,503,977C503.16,976,502.91,975.68,502.91,975.68Z" transform="translate(-118.7 -719.12)" fill="#00438c"/><path d="M498.89,973.84a1.53,1.53,0,0,1-.31,1.75,5.2,5.2,0,0,0,1.81,1.74c.67.37,2.61-.33,2.61-.33a12.81,12.81,0,0,0,.08-2.41Z" transform="translate(-118.7 -719.12)" fill="#fcd2c5"/><path d="M491,875c-.3,2.15-8,30.6-5.77,57.39,1.9,23.07,13.72,42.15,13.72,42.15,0,.17,3.08,1.82,4.6.14,0-4-5.47-41.73-5.35-42.15,3.7-12.83,12.25-35.06,13.71-36.21V876.7C504.38,877.19,493.48,876.08,491,875Z" transform="translate(-118.7 -719.12)" fill="#3ec6c9"/><path d="M526.52,975.9l-3.24-1.49s-.59,1.05-1.09,1.74c-1,1.33-5.9,2.62-5.77,4.39.07.89,2,1.54,3.54,1.48a7.29,7.29,0,0,0,3.65-.8c1-.68,2.87-1.36,3.15-1.94a2.57,2.57,0,0,0,0-2.07C526.8,976.22,526.52,975.9,526.52,975.9Z" transform="translate(-118.7 -719.12)" fill="#00438c"/><path d="M522.61,974.28a2.17,2.17,0,0,1-.42,1.87,5.2,5.2,0,0,0,1.95,1.59c.69.32,2.58-.53,2.58-.53.08-1,0-2.48,0-2.48Z" transform="translate(-118.7 -719.12)" fill="#fcd2c5"/><path d="M522.88,872.27c-6.5-2.75-15.83.9-18.37,4.19-.13,2.17-2.42,30.68.83,57.42,1.71,14,17.12,33.48,17.12,41.19.06.16,3.21,1.57,4.6-.23,0-19-8.81-42.07-8.81-42.07C519.86,916,532.21,890,522.88,872.27Z" transform="translate(-118.7 -719.12)" fill="#3ec6c9"/><path d="M481.77,826c.11.42,2.2,4.58,1.8,7.18,1,2.11,7.07.63,7.84-3.51-1-.9-2.92-6.41-3.12-8.51C487.88,821.68,483.32,825.89,481.77,826Z" transform="translate(-118.7 -719.12)" fill="#fcd2c5"/><path d="M486.94,819.84c-.51-3-2.94-5.14-6-4.62-2.81.48-5.33,1.78-5.31,4.54,0,1,2.48,9.34,7.3,9.52,2,.08,4.9-4.08,4.51-6.33C487.48,823,487,819.87,486.94,819.84Z" transform="translate(-118.7 -719.12)" fill="#fcd2c5"/><path d="M498,829.82c-1.64-.24-6.6-.13-6.6-.13s-2.59,3.64-4.72,4.34c-1.46.46-3.12-.83-3.12-.83s-5,2.94-5.8,3.74c-3.24,3.11.15,9.45,1.21,13.61.35,1.39,3.71,13,7.83,39.83,3.27,9.78,21.71,9.14,34.16.51L519.52,877l4.84,12.53c.85-.32,2.7-.69,3.39-.92C523.13,847.66,512.63,832,498,829.82Z" transform="translate(-118.7 -719.12)" fill="#00aae7"/><path d="M494.74,829.55l-3.33.14s-2.59,3.65-4.72,4.34c-1.46.47-3.12-.83-3.12-.83a43.33,43.33,0,0,0-4.59,2.86c1.39,4.3,6.38,8.49,6.38,8.49s7.3-10.31,12.65-14.73A14.88,14.88,0,0,0,494.74,829.55Z" transform="translate(-118.7 -719.12)" fill="#fff"/><path d="M486.34,809.35c-6.49-4-15.56,2.46-14.71,8.46.19,1.32,2,4.29,13.9-.59,1.88,1.86,3.33,6.5,3.33,6.5C491.94,819.79,491.31,812.42,486.34,809.35Z" transform="translate(-118.7 -719.12)" fill="#00438c"/><path d="M487.17,818.54a2.62,2.62,0,0,0-1.27.42,36.88,36.88,0,0,0,1.29,3.51,2.73,2.73,0,0,0,1.58-2.13C488.75,819.55,488,818.52,487.17,818.54Z" transform="translate(-118.7 -719.12)" fill="#fcd2c5"/><path d="M455.91,867.25c-.17.34,1.12,1.39,1.5,1.45.94-.14.85-.69,1.75-.69a7.79,7.79,0,0,1-2.29-.75C456.49,867,456.13,866.7,455.91,867.25Z" transform="translate(-118.7 -719.12)" fill="#fcd2c5"/><path d="M457.05,868.21c-1.11.16-3.55.78-3.73.82a13.43,13.43,0,0,0-2.1.61,2.1,2.1,0,0,0-.64,1.1.63.63,0,0,0,.41.58c-.13.54,1.25.61,1.19.73-.25.5.36,1,2.26.47.11,0,5.05-.41,6.61-.67a19.71,19.71,0,0,0-1.2-3.86A20.81,20.81,0,0,0,457.05,868.21Z" transform="translate(-118.7 -719.12)" fill="#fcd2c5"/><path d="M498,834.8a1.14,1.14,0,0,0-1,.39c-1.5,1.75-3.79,5.87-6.21,10.23a127.11,127.11,0,0,1-7,11.67c-.35.48-.66.94-.93,1.4-1.93.7-4.51,1.74-7.22,2.84-5.93,2.39-13.31,5.37-16.22,5.67l1.1,5.92c7.25-.9,24-4.76,28.47-8.11,4.71-3.42,20.62-18.5,18.09-22.9C506.27,840.44,499.65,834.9,498,834.8Z" transform="translate(-118.7 -719.12)" fill="#00aae7"/><path d="M258,899.55a8.18,8.18,0,0,1-2.42,0c.85.29.6.78,1.44,1.21.38.07,1.94-.52,1.89-.9C258.83,899.25,258.39,899.47,258,899.55Z" transform="translate(-118.7 -719.12)" fill="#fcd2c5"/><path d="M259.18,901.8c-.12-.08-1.78-1.33-2.58-1.77a13.06,13.06,0,0,0-2.05-1,23.22,23.22,0,0,0-2.1,3.35c1.11.66,4.73,2.34,4.81,2.4,1.28,1,1.9.71,1.86.17,0-.14,1.06.16,1.12-.38a.62.62,0,0,0,.5-.45,2.48,2.48,0,0,0-.15-1.21A10.48,10.48,0,0,0,259.18,901.8Z" transform="translate(-118.7 -719.12)" fill="#fcd2c5"/><path d="M233.8,857.17c-3.67.61-5.83,20.4-5.38,27.54.17,2.71,5.19,7.13,7.29-1.14,1.72-6.74,7.78-19.66,8.55-24C244.41,858.76,235.4,856.9,233.8,857.17Z" transform="translate(-118.7 -719.12)" fill="#fcd2c5"/><path d="M233.8,857.17c-2.45.41-6.08,9-6.86,17.05.87.31,3.6.93,4.49,1.16a53.32,53.32,0,0,0,7.58,1.36c1.74-6.58,4.71-14.11,5.25-17.19C244.41,858.76,235.4,856.9,233.8,857.17Z" transform="translate(-118.7 -719.12)" fill="#d2dbeb"/><path d="M232.72,881.94c-1.45-.38-3.69,0-4.18,3-.54,3.28,17.07,14.33,24.55,17.93a16,16,0,0,1,2.09-3.46c-4.59-2.09-17.64-14.44-21.63-17.09A2.92,2.92,0,0,0,232.72,881.94Z" transform="translate(-118.7 -719.12)" fill="#fcd2c5"/><path d="M176.61,914.09c-.82,2.56-9.75,61.65-9.75,61.65a4.73,4.73,0,0,0,3.83.08s16.92-55.92,17.29-57C186.82,919.49,177.83,915.6,176.61,914.09Z" transform="translate(-118.7 -719.12)" fill="#fcd2c5"/><path d="M171.49,975.93c-.38-.76-.79-1.89-.79-1.89l-3.44,1s-.33.27-.4,1.27a2.54,2.54,0,0,0-.37,2c.18.61,1.95,1.59,2.8,2.41a7.2,7.2,0,0,0,3.47,1.37c1.5.3,3.52,0,3.73-.9C176.91,979.46,172.22,977.39,171.49,975.93Z" transform="translate(-118.7 -719.12)" fill="#00438c"/><path d="M167,974.6s-.09.66-.16,1.66c0,0,1.72,1.13,2.46.93a5.18,5.18,0,0,0,2.17-1.26,7.49,7.49,0,0,1-.65-2Z" transform="translate(-118.7 -719.12)" fill="#fcd2c5"/><path d="M182.57,873.77s-8,37.49-9.79,56.09c-2.08,21.55-5.89,44-5.89,44,1.09,2,4.43,1.11,4.51,1s31.49-93.76,31.9-97.78C200.62,877.51,189.76,876,182.57,873.77Z" transform="translate(-118.7 -719.12)" fill="#00438c"/><path d="M200.74,915c-.2,2.68,5,62.21,5,62.21a4.78,4.78,0,0,0,3.74-.82s3.26-58.34,3.36-59.51C211.93,917.86,202.27,916.21,200.74,915Z" transform="translate(-118.7 -719.12)" fill="#fcd2c5"/><path d="M210.34,976.33c-.55-.65-1.22-1.65-1.22-1.65L206,976.41a1.87,1.87,0,0,0-.1,1.33,2.56,2.56,0,0,0,.12,2.07c.33.55,2.4,1.39,3.3,1.69a10.42,10.42,0,0,0,3.69.5c1.54-.06,3.42-.86,3.42-1.75C216.44,978.48,211.39,977.58,210.34,976.33Z" transform="translate(-118.7 -719.12)" fill="#00438c"/><path d="M205.68,976.09s.07.67.23,1.65c0,0,2,.7,2.62.33a5.2,5.2,0,0,0,1.81-1.74,7.8,7.8,0,0,1-1.11-1.84Z" transform="translate(-118.7 -719.12)" fill="#fcd2c5"/><path d="M197,874.44v19.61c1.47,1.15,1.07,18.7,3.71,37.2,3.06,21.44,4.66,44.16,4.66,44.16,1.52,1.68,4.55,0,4.6-.14,0,0,8.5-98.54,7.94-102.54C215.44,873.82,204.53,874.93,197,874.44Z" transform="translate(-118.7 -719.12)" fill="#00438c"/><path d="M179.46,879.76c-.34,1.52,10,14.88,38.25,13.6.63,0,1.12-5.08,1.12-5.08L193,861.49S181.92,868.71,179.46,879.76Z" transform="translate(-118.7 -719.12)" fill="#d2dbeb"/><path d="M242.57,838c-1.21,1.72-5.65,5.54-6.92,5.84-1.39,4,3.19,8.29,5.06,6.94.95-2.46,4.82-5,5.13-5.34C244.55,844.52,242.69,838.6,242.57,838Z" transform="translate(-118.7 -719.12)" fill="#fcd2c5"/><path d="M251.88,836.41c-2.37-1.95-5.54-1.28-7.47,1.06l-2,2.43c-1.46,1.77-1,6.8.78,7.74,4.28,2.24,10.56-3.79,11-4.65C255.63,840.61,254.08,838.23,251.88,836.41Z" transform="translate(-118.7 -719.12)" fill="#fcd2c5"/><path d="M240.71,850.75s-2.08.3-3.12-.84c-1.51-1.65-1.94-6.1-1.94-6.1s-12.26-4.39-16.82-2.11c-1.4.7-20,10.95-34.87,27.31-3.59,4,8.75,20.42,34.83,20.92,2,0,3.64-7.81,21.79-23.49,2.4-2.07,4.58-5.26,3.31-9.57C243.56,855.76,240.71,850.75,240.71,850.75Z" transform="translate(-118.7 -719.12)" fill="#00aae7"/><path d="M239.17,895.93a7.55,7.55,0,0,1-2.27-.83c.71.56.3.94,1,1.63.33.18,2,.16,2.07-.22C240.09,895.94,239.6,896,239.17,895.93Z" transform="translate(-118.7 -719.12)" fill="#fcd2c5"/><path d="M240.87,899.51c-.11-.14-1.65-2.14-2.43-2.94a20.33,20.33,0,0,0-2.07-1.9A20.05,20.05,0,0,0,233,897c1.08,1.16,4.73,4.5,4.8,4.6,1.17,1.59,1.95,1.58,2.07,1,0-.14,1.15.65,1.38.15a.65.65,0,0,0,.69-.2,2.24,2.24,0,0,0,.17-1.26A14.25,14.25,0,0,0,240.87,899.51Z" transform="translate(-118.7 -719.12)" fill="#fcd2c5"/><path d="M221.79,846c-3.68.61-5.9,20.39-5.47,27.53.16,2.71,5.16,7.14,7.3-1.12,1.73-6.73,7.83-19.64,8.62-24C232.39,847.59,223.38,845.7,221.79,846Z" transform="translate(-118.7 -719.12)" fill="#fcd2c5"/><path d="M219.5,846.16c-1.53,2-3.82,8.8-4.63,16.83a23.25,23.25,0,0,0,12.07,2.56c1.76-6.57,5.83-14.09,5.3-17.17C231.56,844.4,223.44,841.12,219.5,846.16Z" transform="translate(-118.7 -719.12)" fill="#d2dbeb"/><path d="M221.26,870.91c-1.24-.85-3.48-1.25-4.94,1.42-1.6,2.9,11.32,19.2,17.17,25.09a15.79,15.79,0,0,1,3.11-2.57c-3.63-3.5-11.8-19.5-14.68-23.32A3.06,3.06,0,0,0,221.26,870.91Z" transform="translate(-118.7 -719.12)" fill="#fcd2c5"/><path d="M248.2,831c-8.45-.18-7.6,9.71-7.6,9.71,1.09-1.8,8.22-6,13-1.32,0,0,1.43,3.7-3,6.81,2.35.79,8.06-3.69,5.14-7.75C255.75,838.42,253.82,831.09,248.2,831Z" transform="translate(-118.7 -719.12)" fill="#3ec6c9"/><path d="M242.91,836.86a2.74,2.74,0,0,0-.34,2.63,35.12,35.12,0,0,0,3.37-1.62,2.6,2.6,0,0,0-.62-1.19A2,2,0,0,0,242.91,836.86Z" transform="translate(-118.7 -719.12)" fill="#fcd2c5"/><path d="M233.47,823.49c-4.31,3.94-5.67,3.36-8.14,3.54-12.19.85-9.83,21.07-4.88,17.48,1.94-1.4-1.49-7.32,7.77-5.54,10.24,2,10.05-3.72,11.5-6.63,5.48-11,8.61-5.32,8.33-2.53-.16,1.66.83,1.6,1.76.75C253.56,827.13,247.77,810.43,233.47,823.49Z" transform="translate(-118.7 -719.12)" fill="#3ec6c9"/><path d="M249.39,829.64c-1.73-.37-2.49.37-2.83,1.39a10,10,0,0,1,4.42.7,2.46,2.46,0,0,0-.57-1.52A1.91,1.91,0,0,0,249.39,829.64Z" transform="translate(-118.7 -719.12)" fill="#00438c"/><path d="M564.53,836.54a3.39,3.39,0,1,0,3.38,3.39A3.38,3.38,0,0,0,564.53,836.54Z" transform="translate(-118.7 -719.12)" fill="#2f343b"/><path d="M564.31,838.25c-.58.07-14.4,2.08-18.55,22.58l-.33,1.66,3.32.67.33-1.66c3.63-18,15.14-19.82,15.67-19.9l1.67-.21L566,838Z" transform="translate(-118.7 -719.12)" fill="#2f343b"/><polygon points="426.38 262.92 483.34 262.92 483.34 152.01 416.23 145.25 426.38 262.92" fill="#d2dbeb"/><polygon points="393.11 145.25 403.26 195.44 403.26 262.92 455.7 262.92 455.7 195.44 445.55 145.25 393.11 145.25" fill="#e4eef9"/><polygon points="388.03 140.17 388.03 149.76 452.32 149.76 485.03 156.53 485.03 146.94 452.32 140.17 388.03 140.17" fill="#d2dbeb"/><polygon points="452.32 149.76 485.03 156.53 485.03 146.94 452.32 140.17 452.32 149.76" fill="#7094aa"/><polygon points="433.52 208.62 431.01 204.1 419.56 204.1 431.59 182.98 426.24 182.98 411.48 208.62 433.52 208.62" fill="#00438c"/><polygon points="444.85 213.91 447.53 209.28 432.7 183.67 421.64 202.83 426.85 202.85 432.57 192.94 444.85 213.91" fill="#7094aa"/><polygon points="443.89 214.62 432.61 195.43 430.06 199.91 435.66 209.8 411.35 209.75 414.06 214.58 443.89 214.62" fill="#00aae7"/><path d="M280.7,865.69a7.48,7.48,0,0,1-2.87,2.62,10.84,10.84,0,0,1-3.94,1.2v2.22a1.06,1.06,0,0,1-.3.79,1.18,1.18,0,0,1-1.57,0,1,1,0,0,1-.32-.79v-2.19a12.91,12.91,0,0,1-5.58-1.51,7.17,7.17,0,0,1-3.37-3.59,1.8,1.8,0,0,1-.14-.71,1.29,1.29,0,0,1,.36-.91,1.76,1.76,0,0,1,1-.53.89.89,0,0,1,.32,0,1.75,1.75,0,0,1,1,.32,2,2,0,0,1,.72.88,4.21,4.21,0,0,0,2.11,1.94,10.21,10.21,0,0,0,3.63,1v-9.62a10.73,10.73,0,0,1-5.9-2.59,6.61,6.61,0,0,1-2.17-5,6.12,6.12,0,0,1,2.28-4.93A10.22,10.22,0,0,1,271.7,842v-1.69a1,1,0,0,1,.32-.79,1.18,1.18,0,0,1,1.57,0,1.06,1.06,0,0,1,.3.79V842a9,9,0,0,1,4.35,1.39,10.1,10.1,0,0,1,3,3.26,2.51,2.51,0,0,1,.39,1.24,1.36,1.36,0,0,1-.67,1.23,1.47,1.47,0,0,1-.85.25,1.81,1.81,0,0,1-.88-.25,1.74,1.74,0,0,1-.66-.71,6.7,6.7,0,0,0-1.85-2.2,5.84,5.84,0,0,0-2.8-1V854a10,10,0,0,1,5.77,2.51,7,7,0,0,1,2.12,5.27A7.11,7.11,0,0,1,280.7,865.69Zm-12.57-13.78a6.41,6.41,0,0,0,3.57,1.75V845.1a6,6,0,0,0-3.33,1.27,3.46,3.46,0,0,0-1.25,2.78A4.1,4.1,0,0,0,268.13,851.91Zm8.89,12.9a3.86,3.86,0,0,0,1.23-2.94,4.37,4.37,0,0,0-1.09-3,6.26,6.26,0,0,0-3.27-1.84v9.2A5.93,5.93,0,0,0,277,864.81Z" transform="translate(-118.7 -719.12)" fill="#00aae7"/><circle cx="280.34" cy="48.86" r="21.18" fill="#3ec6c9"/><path d="M407,777.87a7.5,7.5,0,0,1-2.87,2.63,11,11,0,0,1-3.94,1.19v2.22a1.13,1.13,0,0,1-.3.8,1.18,1.18,0,0,1-1.57,0,1.06,1.06,0,0,1-.32-.8v-2.18a12.92,12.92,0,0,1-5.58-1.52,7.17,7.17,0,0,1-3.37-3.59,1.75,1.75,0,0,1-.14-.7,1.3,1.3,0,0,1,.36-.92,1.83,1.83,0,0,1,1-.53,1.27,1.27,0,0,1,.32,0,1.74,1.74,0,0,1,1,.31,2.05,2.05,0,0,1,.72.89,4.2,4.2,0,0,0,2.11,1.93,10,10,0,0,0,3.63.95v-9.61a10.8,10.8,0,0,1-5.9-2.59,6.62,6.62,0,0,1-2.17-5,6.11,6.11,0,0,1,2.28-4.93,10.15,10.15,0,0,1,5.79-2.22v-1.69a1,1,0,0,1,.32-.79,1.09,1.09,0,0,1,1.87.79v1.69a8.93,8.93,0,0,1,4.35,1.39,10,10,0,0,1,3,3.26,2.44,2.44,0,0,1,.39,1.23,1.36,1.36,0,0,1-.67,1.23,1.42,1.42,0,0,1-.85.25,1.71,1.71,0,0,1-.88-.25,1.81,1.81,0,0,1-.67-.7,6.46,6.46,0,0,0-1.84-2.2,5.84,5.84,0,0,0-2.8-1v8.84a10,10,0,0,1,5.77,2.52,7,7,0,0,1,2.12,5.26A7.06,7.06,0,0,1,407,777.87ZM394.38,764.1a6.35,6.35,0,0,0,3.57,1.74v-8.56a6,6,0,0,0-3.33,1.27,3.48,3.48,0,0,0-1.25,2.78A4.15,4.15,0,0,0,394.38,764.1ZM403.27,777a3.83,3.83,0,0,0,1.23-2.94,4.39,4.39,0,0,0-1.09-3,6.32,6.32,0,0,0-3.27-1.83v9.19A5.93,5.93,0,0,0,403.27,777Z" transform="translate(-118.7 -719.12)" fill="#fff"/></g></svg>